<?xml version="1.0" standalone="no"?>
<!DOCTYPE svg PUBLIC "-//W3C//DTD SVG 20010904//EN"
 "http://www.w3.org/TR/2001/REC-SVG-20010904/DTD/svg10.dtd">
<svg version="1.0" xmlns="http://www.w3.org/2000/svg"
 width="2048.000000pt" height="2048.000000pt" viewBox="500 450 1024 1024"
 preserveAspectRatio="xMidYMid meet">

<g transform="translate(0.000000,2048.000000) scale(0.100000,-0.100000)"
fill="#000000" stroke="none">
<path d="M9590 13900 c-495 -50 -942 -327 -1235 -765 -78 -117 -171 -295 -226
-434 -18 -47 -48 -104 -66 -128 -18 -24 -33 -46 -33 -50 0 -3 -12 -21 -26 -40
-30 -39 -144 -274 -144 -296 0 -8 -7 -28 -15 -43 -8 -16 -15 -36 -15 -45 0 -9
-12 -62 -26 -118 -21 -83 -26 -128 -27 -249 -2 -143 6 -273 18 -293 4 -5 8
-21 11 -35 41 -226 136 -412 339 -660 44 -53 100 -118 125 -144 25 -25 81 -85
125 -133 43 -48 81 -89 83 -92 2 -2 -21 -22 -52 -44 -88 -65 -144 -130 -183
-211 -46 -93 -56 -205 -28 -292 21 -67 118 -212 230 -346 84 -100 108 -147 42
-85 -60 59 -74 70 -106 89 -17 10 -31 21 -31 25 0 4 -32 20 -72 35 -74 28
-170 34 -209 13 -32 -17 -65 -53 -77 -84 -24 -63 -11 -192 24 -235 6 -8 14
-24 18 -35 3 -11 16 -31 28 -45 13 -14 31 -37 41 -52 25 -40 103 -125 262
-283 171 -172 250 -243 340 -309 22 -16 42 -32 45 -36 3 -3 41 -31 85 -61 44
-30 86 -60 94 -67 7 -7 34 -24 60 -36 25 -13 71 -36 101 -51 89 -45 218 -93
275 -102 11 -2 52 -10 90 -18 68 -14 313 -15 375 -1 14 3 41 9 60 12 65 11
190 46 196 55 3 5 12 9 21 9 19 0 214 96 263 130 8 5 38 24 65 42 28 18 60 42
73 53 13 11 84 48 159 82 243 111 401 218 572 386 255 251 413 534 497 893 27
112 28 132 29 349 0 218 -2 236 -28 350 -31 129 -98 297 -165 412 -87 149
-229 322 -525 639 -181 193 -230 263 -200 283 21 13 31 49 31 113 0 124 -79
248 -313 485 -129 130 -138 147 -22 40 146 -135 413 -362 468 -398 82 -55 144
-72 238 -67 273 16 477 316 373 551 -11 26 -49 83 -83 128 -139 183 -619 666
-800 804 -187 143 -423 280 -587 339 -157 56 -387 83 -562 66z m373 -156 c44
-9 115 -26 157 -40 146 -46 393 -187 563 -322 148 -117 423 -377 590 -559 235
-255 260 -293 260 -398 1 -110 -72 -218 -182 -272 -45 -23 -69 -28 -126 -28
-43 0 -80 6 -96 15 -25 14 -521 469 -788 724 -63 60 -145 129 -183 153 -265
172 -612 159 -898 -33 -80 -53 -208 -183 -263 -266 -114 -173 -162 -346 -154
-553 9 -215 63 -343 212 -509 51 -56 351 -356 667 -669 317 -312 588 -585 602
-606 68 -97 87 -224 51 -331 -24 -72 -108 -158 -180 -183 -69 -24 -161 -22
-231 4 -48 18 -88 49 -233 184 -284 261 -961 958 -1136 1169 -269 323 -344
486 -376 824 -27 269 33 577 161 835 85 171 171 289 314 433 268 267 550 404
926 448 62 7 260 -4 343 -20z m49 -801 c64 -25 146 -84 206 -146 28 -31 52
-58 52 -61 0 -14 -18 -3 -58 33 -24 22 -64 53 -91 70 -26 17 -56 40 -66 51
-10 11 -22 20 -26 20 -5 0 -25 11 -45 25 -43 29 -32 32 28 8z m293 -251 c-3
-3 -11 0 -18 7 -9 10 -8 11 6 5 10 -3 15 -9 12 -12z m65 -56 c9 -15 3 -12 -19
8 -17 17 -31 31 -31 33 0 9 39 -23 50 -41z m-1025 14 c75 -11 161 -34 185 -49
12 -8 7 -18 -26 -58 -105 -125 -136 -204 -138 -348 -1 -116 13 -166 80 -291
24 -45 44 -83 44 -86 0 -3 -18 3 -40 14 -44 22 -165 27 -184 8 -5 -5 -17 -10
-26 -10 -9 0 -35 -16 -57 -35 -23 -19 -46 -35 -51 -35 -35 0 -128 160 -158
271 -24 90 -22 251 4 351 35 129 115 261 165 271 42 8 132 7 202 -3z m595
-172 c125 -62 1166 -1138 1409 -1457 130 -170 214 -326 245 -452 66 -269 59
-575 -20 -839 -112 -372 -358 -702 -676 -906 -405 -260 -902 -306 -1297 -118
-138 65 -320 179 -446 281 -132 105 -578 548 -694 688 -121 146 -141 184 -141
270 0 84 21 135 81 200 79 85 197 123 299 95 37 -10 67 -34 170 -134 230 -224
690 -660 752 -713 210 -179 514 -222 795 -113 222 86 428 289 522 514 108 260
98 539 -27 763 -36 65 -95 127 -748 792 -703 714 -679 684 -679 841 0 152 70
257 202 306 63 23 187 14 253 -18z m813 -1923 c11 -16 13 -23 5 -20 -15 6 -42
45 -31 45 5 0 16 -12 26 -25z m-224 -732 c13 -61 21 -140 21 -199 l0 -98 -49
-47 c-119 -115 -355 -172 -531 -130 -90 22 -192 75 -238 125 l-41 45 35 58
c32 53 35 64 32 118 -3 38 -14 82 -31 119 -15 32 -25 61 -23 64 3 2 38 -19 78
-47 92 -64 171 -93 274 -99 141 -8 254 38 368 149 49 48 73 65 78 56 4 -7 16
-59 27 -114z"/>
</g>
</svg>
